<?xml version="1.0" encoding="UTF-8" standalone="no"?>
<!DOCTYPE svg PUBLIC "-//W3C//DTD SVG 1.1//EN" "http://www.w3.org/Graphics/SVG/1.1/DTD/svg11.dtd">
<!-- Generated by graphviz version 2.40.1 (20161225.0304)
 -->
<!-- Title: PetriNet Pages: 1 -->
<svg xmlns="http://www.w3.org/2000/svg" xmlns:xlink="http://www.w3.org/1999/xlink" width="733pt" height="475pt" viewBox="0.00 0.00 733.00 475.00">
<g id="graph0" class="graph" transform="scale(1 1) rotate(0) translate(4 471)">
<title>PetriNet</title>
<polygon fill="#ffffff" stroke="transparent" points="-4,4 -4,-471 729,-471 729,4 -4,4"/>
<g id="clust1" class="cluster">
<title>cluster_place_unexecuted pickles</title>
<polygon fill="#ffffff" stroke="#000000" stroke-width="0" points="160,-214 160,-306 282,-306 282,-214 160,-214"/>
<text text-anchor="middle" x="221.4502" y="-290.8" font-family="Times,serif" font-size="14.00" fill="#000000">unexecuted pickles</text>
</g>
<g id="clust2" class="cluster">
<title>cluster_place_ready to load stepdefs</title>
<polygon fill="#ffffff" stroke="#000000" stroke-width="0" points="8,-367 8,-459 146,-459 146,-367 8,-367"/>
<text text-anchor="middle" x="77.2295" y="-443.8" font-family="Times,serif" font-size="14.00" fill="#000000">ready to load stepdefs</text>
</g>
<g id="clust3" class="cluster">
<title>cluster_place_pending</title>
<polygon fill="#ffffff" stroke="#000000" stroke-width="0" points="377,-61 377,-153 447,-153 447,-61 377,-61"/>
<text text-anchor="middle" x="407.5518" y="-137.8" font-family="Times,serif" font-size="14.00" fill="#000000">pending</text>
</g>
<g id="clust4" class="cluster">
<title>cluster_place_stepdefs loaded</title>
<polygon fill="#ffffff" stroke="#000000" stroke-width="0" points="44,-214 44,-306 146,-306 146,-214 44,-214"/>
<text text-anchor="middle" x="95.3467" y="-290.8" font-family="Times,serif" font-size="14.00" fill="#000000">stepdefs loaded</text>
</g>
<g id="clust5" class="cluster">
<title>cluster_place_executing</title>
<polygon fill="#ffffff" stroke="#000000" stroke-width="0" points="431,-214 431,-306 501,-306 501,-214 431,-214"/>
<text text-anchor="middle" x="466.2104" y="-290.8" font-family="Times,serif" font-size="14.00" fill="#000000">executing</text>
</g>
<g id="clust6" class="cluster">
<title>cluster_place_passed</title>
<polygon fill="#ffffff" stroke="#000000" stroke-width="0" points="557,-61 557,-153 627,-153 627,-61 557,-61"/>
<text text-anchor="middle" x="583.6621" y="-137.8" font-family="Times,serif" font-size="14.00" fill="#000000">passed</text>
</g>
<g id="clust7" class="cluster">
<title>cluster_place_failed</title>
<polygon fill="#ffffff" stroke="#000000" stroke-width="0" points="647,-61 647,-153 717,-153 717,-61 647,-61"/>
<text text-anchor="middle" x="670.9346" y="-137.8" font-family="Times,serif" font-size="14.00" fill="#000000">failed</text>
</g>
<g id="clust8" class="cluster">
<title>cluster_place_ambiguous</title>
<polygon fill="#ffffff" stroke="#000000" stroke-width="0" points="120,-61 120,-153 197,-153 197,-61 120,-61"/>
<text text-anchor="middle" x="158.7207" y="-137.8" font-family="Times,serif" font-size="14.00" fill="#000000">ambiguous</text>
</g>
<g id="clust9" class="cluster">
<title>cluster_place_ready to load pickles</title>
<polygon fill="#ffffff" stroke="#000000" stroke-width="0" points="160,-367 160,-459 292,-459 292,-367 160,-367"/>
<text text-anchor="middle" x="226.1191" y="-443.8" font-family="Times,serif" font-size="14.00" fill="#000000">ready to load pickles</text>
</g>
<g id="clust10" class="cluster">
<title>cluster_place_idle executors</title>
<polygon fill="#ffffff" stroke="#000000" stroke-width="0" points="455,-61 455,-153 549,-153 549,-61 455,-61"/>
<text text-anchor="middle" x="502.0674" y="-137.8" font-family="Times,serif" font-size="14.00" fill="#000000">idle executors</text>
</g>
<g id="clust11" class="cluster">
<title>cluster_place_defined</title>
<polygon fill="#ffffff" stroke="#000000" stroke-width="0" points="213,-61 213,-153 283,-153 283,-61 213,-61"/>
<text text-anchor="middle" x="241.6069" y="-137.8" font-family="Times,serif" font-size="14.00" fill="#000000">defined</text>
</g>
<g id="clust12" class="cluster">
<title>cluster_place_undefined</title>
<polygon fill="#ffffff" stroke="#000000" stroke-width="0" points="32,-61 32,-153 103,-153 103,-61 32,-61"/>
<text text-anchor="middle" x="67.6069" y="-137.8" font-family="Times,serif" font-size="14.00" fill="#000000">undefined</text>
</g>
<g id="clust13" class="cluster">
<title>cluster_transition_2+ matches</title>
<polygon fill="#ffffff" stroke="#000000" stroke-width="0" points="118,-161 118,-206 198,-206 198,-161 118,-161"/>
<text text-anchor="middle" x="158.1323" y="-190.8" font-family="Times,serif" font-size="14.00" fill="#000000">2+ matches</text>
</g>
<g id="clust14" class="cluster">
<title>cluster_transition_throw error</title>
<polygon fill="#ffffff" stroke="#000000" stroke-width="0" points="547,-161 547,-206 626,-206 626,-161 547,-161"/>
<text text-anchor="middle" x="586.6812" y="-190.8" font-family="Times,serif" font-size="14.00" fill="#000000">throw error</text>
</g>
<g id="clust15" class="cluster">
<title>cluster_transition_load pickle</title>
<polygon fill="#ffffff" stroke="#000000" stroke-width="0" points="165,-314 165,-359 242,-359 242,-314 165,-314"/>
<text text-anchor="middle" x="203.9053" y="-343.8" font-family="Times,serif" font-size="14.00" fill="#000000">load pickle</text>
</g>
<g id="clust16" class="cluster">
<title>cluster_transition_signal pending</title>
<polygon fill="#ffffff" stroke="#000000" stroke-width="0" points="360,-161 360,-206 458,-206 458,-161 360,-161"/>
<text text-anchor="middle" x="409.0225" y="-190.8" font-family="Times,serif" font-size="14.00" fill="#000000">signal pending</text>
</g>
<g id="clust17" class="cluster">
<title>cluster_transition_0 matches</title>
<polygon fill="#ffffff" stroke="#000000" stroke-width="0" points="38,-161 38,-206 110,-206 110,-161 38,-161"/>
<text text-anchor="middle" x="74.1846" y="-190.8" font-family="Times,serif" font-size="14.00" fill="#000000">0 matches</text>
</g>
<g id="clust18" class="cluster">
<title>cluster_transition_load stepdefs</title>
<polygon fill="#ffffff" stroke="#000000" stroke-width="0" points="53,-314 53,-359 142,-359 142,-314 53,-314"/>
<text text-anchor="middle" x="97.7397" y="-343.8" font-family="Times,serif" font-size="14.00" fill="#000000">load stepdefs</text>
</g>
<g id="clust19" class="cluster">
<title>cluster_transition_1 match</title>
<polygon fill="#ffffff" stroke="#000000" stroke-width="0" points="206,-161 206,-206 266,-206 266,-161 206,-161"/>
<text text-anchor="middle" x="236.3535" y="-190.8" font-family="Times,serif" font-size="14.00" fill="#000000">1 match</text>
</g>
<g id="clust20" class="cluster">
<title>cluster_transition_no errors</title>
<polygon fill="#ffffff" stroke="#000000" stroke-width="0" points="471,-161 471,-206 537,-206 537,-161 471,-161"/>
<text text-anchor="middle" x="504.0742" y="-190.8" font-family="Times,serif" font-size="14.00" fill="#000000">no errors</text>
</g>
<g id="clust21" class="cluster">
<title>cluster_transition_execute</title>
<polygon fill="#ffffff" stroke="#000000" stroke-width="0" points="301,-8 301,-53 359,-53 359,-8 301,-8"/>
<text text-anchor="middle" x="330.3726" y="-37.8" font-family="Times,serif" font-size="14.00" fill="#000000">execute</text>
</g>
<!-- node_unexecuted pickles -->
<g id="node1" class="node">
<title>node_unexecuted pickles</title>
<ellipse fill="none" stroke="#000000" cx="198" cy="-249" rx="27" ry="27"/>

</g>
<!-- node_2+ matches -->
<g id="node13" class="node">
<title>node_2+ matches</title>
<polygon fill="#000000" stroke="#000000" points="176,-176 140,-176 140,-169 176,-169 176,-176"/>
</g>
<!-- node_unexecuted pickles&#45;&gt;node_2+ matches -->
<g id="edge22" class="edge">
<title>node_unexecuted pickles-&gt;node_2+ matches</title>
<path fill="none" stroke="#000000" d="M185.3438,-224.7949C178.4809,-211.6697 170.2783,-195.9822 164.6589,-185.2351"/>
<polygon fill="#000000" stroke="#000000" points="167.6376,-183.3782 159.9024,-176.1383 161.4344,-186.6218 167.6376,-183.3782"/>
</g>
<!-- node_0 matches -->
<g id="node17" class="node">
<title>node_0 matches</title>
<polygon fill="#000000" stroke="#000000" points="102,-176 66,-176 66,-169 102,-169 102,-176"/>
</g>
<!-- node_unexecuted pickles&#45;&gt;node_0 matches -->
<g id="edge21" class="edge">
<title>node_unexecuted pickles-&gt;node_0 matches</title>
<path fill="none" stroke="#000000" d="M178.4589,-229.5657C171.5572,-223.7128 163.4083,-217.8327 155,-214 136.1178,-205.393 126.6808,-216.8631 109,-206 101.0237,-201.0994 94.738,-192.6313 90.4644,-185.4355"/>
<polygon fill="#000000" stroke="#000000" points="93.442,-183.5784 85.6803,-176.3668 87.2506,-186.8446 93.442,-183.5784"/>
</g>
<!-- node_1 match -->
<g id="node19" class="node">
<title>node_1 match</title>
<polygon fill="#000000" stroke="#000000" points="250,-176 214,-176 214,-169 250,-169 250,-176"/>
</g>
<!-- node_unexecuted pickles&#45;&gt;node_1 match -->
<g id="edge20" class="edge">
<title>node_unexecuted pickles-&gt;node_1 match</title>
<path fill="none" stroke="#000000" d="M209.1329,-223.951C214.8788,-211.0227 221.6439,-195.8011 226.3177,-185.2851"/>
<polygon fill="#000000" stroke="#000000" points="229.5582,-186.6118 230.4213,-176.0522 223.1615,-183.7688 229.5582,-186.6118"/>
</g>
<!-- node_ready to load stepdefs -->
<g id="node2" class="node">
<title>node_ready to load stepdefs</title>
<ellipse fill="none" stroke="#000000" cx="108" cy="-402" rx="27" ry="27"/>
<circle fill="#000000" stroke="none" cx="108" cy="-402" r="4.800000000000001"/>
</g>
<!-- node_load stepdefs -->
<g id="node18" class="node">
<title>node_load stepdefs</title>
<polygon fill="#000000" stroke="#000000" points="126,-329 90,-329 90,-322 126,-322 126,-329"/>
</g>
<!-- node_ready to load stepdefs&#45;&gt;node_load stepdefs -->
<g id="edge29" class="edge">
<title>node_ready to load stepdefs-&gt;node_load stepdefs</title>
<path fill="none" stroke="#000000" d="M108,-374.8136C108,-362.735 108,-349.0461 108,-339.1606"/>
<polygon fill="#000000" stroke="#000000" points="111.5001,-339.0807 108,-329.0808 104.5001,-339.0808 111.5001,-339.0807"/>
</g>
<!-- node_pending -->
<g id="node3" class="node">
<title>node_pending</title>
<ellipse fill="none" stroke="#000000" cx="412" cy="-96" rx="27" ry="27"/>

</g>
<!-- node_stepdefs loaded -->
<g id="node4" class="node">
<title>node_stepdefs loaded</title>
<ellipse fill="none" stroke="#000000" cx="108" cy="-249" rx="27" ry="27"/>

</g>
<!-- node_stepdefs loaded&#45;&gt;node_2+ matches -->
<g id="edge9" class="edge">
<title>node_stepdefs loaded-&gt;node_2+ matches</title>
<path fill="none" stroke="#000000" d="M129.8757,-232.7763C142.0785,-218.9497 154.7147,-199.2982 159.67,-186.2367"/>
<polygon fill="#000000" stroke="#000000" points="163.1608,-186.6457 161.8026,-176.1383 156.3118,-185.1993 163.1608,-186.6457"/>
</g>
<!-- node_stepdefs loaded&#45;&gt;node_0 matches -->
<g id="edge8" class="edge">
<title>node_stepdefs loaded-&gt;node_0 matches</title>
<path fill="none" stroke="#000000" d="M112.549,-222.244C109.7537,-209.1834 104.0569,-194.1517 97.6269,-184.0608"/>
<polygon fill="#000000" stroke="#000000" points="100.2755,-181.7682 91.3083,-176.1255 94.7994,-186.1286 100.2755,-181.7682"/>
</g>
<!-- node_stepdefs loaded&#45;&gt;node_1 match -->
<g id="edge7" class="edge">
<title>node_stepdefs loaded-&gt;node_1 match</title>
<path fill="none" stroke="#000000" d="M132.9947,-237.9553C144.2837,-229.937 156.302,-219.5574 169,-214 192.0323,-203.9197 203.3817,-218.8353 225,-206 232.6752,-201.443 238.7463,-193.5316 240.9864,-186.541"/>
<polygon fill="#000000" stroke="#000000" points="244.4821,-186.315 240.7464,-176.4006 237.4841,-186.4807 244.4821,-186.315"/>
</g>
<!-- node_executing -->
<g id="node5" class="node">
<title>node_executing</title>
<ellipse fill="none" stroke="#000000" cx="466" cy="-249" rx="27" ry="27"/>

</g>
<!-- node_throw error -->
<g id="node14" class="node">
<title>node_throw error</title>
<polygon fill="#000000" stroke="#000000" points="592,-176 556,-176 556,-169 592,-169 592,-176"/>
</g>
<!-- node_executing&#45;&gt;node_throw error -->
<g id="edge11" class="edge">
<title>node_executing-&gt;node_throw error</title>
<path fill="none" stroke="#000000" d="M490.9339,-238.6114C507.5217,-231.0038 529.2557,-219.6486 546,-206 553.5792,-199.822 560.6298,-191.3639 565.76,-184.4923"/>
<polygon fill="#000000" stroke="#000000" points="568.8384,-186.2 571.7401,-176.0103 563.1174,-182.1665 568.8384,-186.2"/>
</g>
<!-- node_signal pending -->
<g id="node16" class="node">
<title>node_signal pending</title>
<polygon fill="#000000" stroke="#000000" points="448,-176 412,-176 412,-169 448,-169 448,-176"/>
</g>
<!-- node_executing&#45;&gt;node_signal pending -->
<g id="edge13" class="edge">
<title>node_executing-&gt;node_signal pending</title>
<path fill="none" stroke="#000000" d="M454.4112,-224.3738C448.3129,-211.415 441.0853,-196.0562 436.0849,-185.4303"/>
<polygon fill="#000000" stroke="#000000" points="439.1167,-183.653 431.6918,-176.0951 432.783,-186.6336 439.1167,-183.653"/>
</g>
<!-- node_no errors -->
<g id="node20" class="node">
<title>node_no errors</title>
<polygon fill="#000000" stroke="#000000" points="520,-176 484,-176 484,-169 520,-169 520,-176"/>
</g>
<!-- node_executing&#45;&gt;node_no errors -->
<g id="edge12" class="edge">
<title>node_executing-&gt;node_no errors</title>
<path fill="none" stroke="#000000" d="M477.5888,-224.3738C483.6871,-211.415 490.9147,-196.0562 495.9151,-185.4303"/>
<polygon fill="#000000" stroke="#000000" points="499.217,-186.6336 500.3082,-176.0951 492.8833,-183.653 499.217,-186.6336"/>
</g>
<!-- node_passed -->
<g id="node6" class="node">
<title>node_passed</title>
<ellipse fill="none" stroke="#000000" cx="592" cy="-96" rx="27" ry="27"/>

</g>
<!-- node_failed -->
<g id="node7" class="node">
<title>node_failed</title>
<ellipse fill="none" stroke="#000000" cx="682" cy="-96" rx="27" ry="27"/>

</g>
<!-- node_ambiguous -->
<g id="node8" class="node">
<title>node_ambiguous</title>
<ellipse fill="none" stroke="#000000" cx="158" cy="-96" rx="27" ry="27"/>

</g>
<!-- node_ready to load pickles -->
<g id="node9" class="node">
<title>node_ready to load pickles</title>
<ellipse fill="none" stroke="#000000" cx="198" cy="-402" rx="27" ry="27"/>
<circle fill="#000000" stroke="none" cx="198" cy="-402" r="4.800000000000001"/>
</g>
<!-- node_load pickle -->
<g id="node15" class="node">
<title>node_load pickle</title>
<polygon fill="#000000" stroke="#000000" points="216,-329 180,-329 180,-322 216,-322 216,-329"/>
</g>
<!-- node_ready to load pickles&#45;&gt;node_load pickle -->
<g id="edge27" class="edge">
<title>node_ready to load pickles-&gt;node_load pickle</title>
<path fill="none" stroke="#000000" d="M210.6563,-377.7949C212.3033,-364.6697 211.539,-348.9822 208.3631,-338.2351"/>
<polygon fill="#000000" stroke="#000000" points="211.538,-336.7619 204.1806,-329.1383 205.1781,-339.6861 211.538,-336.7619"/>
</g>
<!-- node_idle executors -->
<g id="node10" class="node">
<title>node_idle executors</title>
<ellipse fill="none" stroke="#000000" cx="502" cy="-96" rx="27" ry="27"/>
<circle fill="#000000" stroke="none" cx="508" cy="-96" r="4.800000000000001"/><circle fill="#000000" stroke="none" cx="496" cy="-96" r="4.800000000000001"/>
</g>
<!-- node_execute -->
<g id="node21" class="node">
<title>node_execute</title>
<polygon fill="#000000" stroke="#000000" points="348,-23 312,-23 312,-16 348,-16 348,-23"/>
</g>
<!-- node_idle executors&#45;&gt;node_execute -->
<g id="edge6" class="edge">
<title>node_idle executors-&gt;node_execute</title>
<path fill="none" stroke="#000000" d="M481.467,-78.0542C473.8427,-72.0348 464.881,-65.6722 456,-61 423.396,-43.8475 382.3424,-31.9274 356.1282,-25.3977"/>
<polygon fill="#000000" stroke="#000000" points="356.7406,-21.9451 346.1991,-23.0061 355.1014,-28.7505 356.7406,-21.9451"/>
</g>
<!-- node_defined -->
<g id="node11" class="node">
<title>node_defined</title>
<ellipse fill="none" stroke="#000000" cx="248" cy="-96" rx="27" ry="27"/>

</g>
<!-- node_defined&#45;&gt;node_execute -->
<g id="edge3" class="edge">
<title>node_defined-&gt;node_execute</title>
<path fill="none" stroke="#000000" d="M267.8499,-77.4815C283.7166,-62.679 305.4028,-42.4474 318.5163,-30.2135"/>
<polygon fill="#000000" stroke="#000000" points="321.1239,-32.5674 326.0484,-23.1865 316.3488,-27.4489 321.1239,-32.5674"/>
</g>
<!-- node_undefined -->
<g id="node12" class="node">
<title>node_undefined</title>
<ellipse fill="none" stroke="#000000" cx="68" cy="-96" rx="27" ry="27"/>

</g>
<!-- node_2+ matches&#45;&gt;node_stepdefs loaded -->
<g id="edge16" class="edge">
<title>node_2+ matches-&gt;node_stepdefs loaded</title>
<path fill="none" stroke="#000000" d="M149.4595,-176.1255C139.7596,-182.9944 127.1517,-198.5631 117.6994,-213.5543"/>
<polygon fill="#000000" stroke="#000000" points="114.6364,-211.8577 112.5446,-222.244 120.6568,-215.4291 114.6364,-211.8577"/>
</g>
<!-- node_2+ matches&#45;&gt;node_ambiguous -->
<g id="edge17" class="edge">
<title>node_2+ matches-&gt;node_ambiguous</title>
<path fill="none" stroke="#000000" d="M158,-168.8102C158,-162.2297 158,-147.8144 158,-133.5326"/>
<polygon fill="#000000" stroke="#000000" points="161.5001,-133.2706 158,-123.2707 154.5001,-133.2707 161.5001,-133.2706"/>
</g>
<!-- node_throw error&#45;&gt;node_failed -->
<g id="edge5" class="edge">
<title>node_throw error-&gt;node_failed</title>
<path fill="none" stroke="#000000" d="M592.0577,-169.7118C605.1321,-167.0368 622.76,-162.0241 636,-153 645.9151,-146.2421 654.7704,-136.722 662.0003,-127.3941"/>
<polygon fill="#000000" stroke="#000000" points="664.8297,-129.4544 667.9211,-119.3206 659.1849,-125.3147 664.8297,-129.4544"/>
</g>
<!-- node_throw error&#45;&gt;node_idle executors -->
<g id="edge4" class="edge">
<title>node_throw error-&gt;node_idle executors</title>
<path fill="none" stroke="#000000" d="M568.5139,-168.9749C563.0282,-165.3191 554.4959,-159.2693 548,-153 539.5934,-144.8867 531.2961,-135.2554 524.1123,-126.2405"/>
<polygon fill="#000000" stroke="#000000" points="526.7585,-123.9418 517.8569,-118.1962 521.2326,-128.2389 526.7585,-123.9418"/>
</g>
<!-- node_load pickle&#45;&gt;node_unexecuted pickles -->
<g id="edge18" class="edge">
<title>node_load pickle-&gt;node_unexecuted pickles</title>
<path fill="none" stroke="#000000" d="M198,-321.8102C198,-315.2297 198,-300.8144 198,-286.5326"/>
<polygon fill="#000000" stroke="#000000" points="201.5001,-286.2706 198,-276.2707 194.5001,-286.2707 201.5001,-286.2706"/>
</g>
<!-- node_load pickle&#45;&gt;node_ready to load pickles -->
<g id="edge19" class="edge">
<title>node_load pickle-&gt;node_ready to load pickles</title>
<path fill="none" stroke="#000000" d="M191.8194,-329.1383C186.5086,-336.1551 184.0879,-352.216 184.5571,-367.4777"/>
<polygon fill="#000000" stroke="#000000" points="181.0936,-368.09 185.3438,-377.7949 188.0733,-367.5578 181.0936,-368.09"/>
</g>
<!-- node_signal pending&#45;&gt;node_pending -->
<g id="edge26" class="edge">
<title>node_signal pending-&gt;node_pending</title>
<path fill="none" stroke="#000000" d="M429.1318,-168.8102C427.5456,-162.0688 424.0247,-147.1048 420.5848,-132.4854"/>
<polygon fill="#000000" stroke="#000000" points="423.9385,-131.457 418.2411,-122.5245 417.1246,-133.0604 423.9385,-131.457"/>
</g>
<!-- node_signal pending&#45;&gt;node_idle executors -->
<g id="edge25" class="edge">
<title>node_signal pending-&gt;node_idle executors</title>
<path fill="none" stroke="#000000" d="M435.4861,-168.9749C440.9718,-165.3191 449.5041,-159.2693 456,-153 464.4066,-144.8867 472.7039,-135.2554 479.8877,-126.2405"/>
<polygon fill="#000000" stroke="#000000" points="482.7674,-128.2389 486.1431,-118.1962 477.2415,-123.9418 482.7674,-128.2389"/>
</g>
<!-- node_0 matches&#45;&gt;node_stepdefs loaded -->
<g id="edge14" class="edge">
<title>node_0 matches-&gt;node_stepdefs loaded</title>
<path fill="none" stroke="#000000" d="M79.0111,-176.0268C75.4765,-183.7414 79.0802,-202.7608 85.5439,-219.448"/>
<polygon fill="#000000" stroke="#000000" points="82.4548,-221.1216 89.6478,-228.9005 88.8758,-218.3338 82.4548,-221.1216"/>
</g>
<!-- node_0 matches&#45;&gt;node_undefined -->
<g id="edge15" class="edge">
<title>node_0 matches-&gt;node_undefined</title>
<path fill="none" stroke="#000000" d="M83.2283,-168.8102C81.8183,-162.0688 78.6886,-147.1048 75.6309,-132.4854"/>
<polygon fill="#000000" stroke="#000000" points="79.0208,-131.5962 73.5476,-122.5245 72.169,-133.0293 79.0208,-131.5962"/>
</g>
<!-- node_load stepdefs&#45;&gt;node_stepdefs loaded -->
<g id="edge28" class="edge">
<title>node_load stepdefs-&gt;node_stepdefs loaded</title>
<path fill="none" stroke="#000000" d="M108,-321.8102C108,-315.2297 108,-300.8144 108,-286.5326"/>
<polygon fill="#000000" stroke="#000000" points="111.5001,-286.2706 108,-276.2707 104.5001,-286.2707 111.5001,-286.2706"/>
</g>
<!-- node_1 match&#45;&gt;node_stepdefs loaded -->
<g id="edge2" class="edge">
<title>node_1 match-&gt;node_stepdefs loaded</title>
<path fill="none" stroke="#000000" d="M220.2749,-176.1783C209.2207,-183.2802 201.1056,-198.8126 189,-206 167.3817,-218.8353 156.0323,-203.9197 133,-214 130.6081,-215.0468 128.2403,-216.2648 125.9398,-217.6058"/>
<polygon fill="#000000" stroke="#000000" points="123.837,-214.8021 117.4918,-223.2867 127.7431,-220.6109 123.837,-214.8021"/>
</g>
<!-- node_1 match&#45;&gt;node_defined -->
<g id="edge1" class="edge">
<title>node_1 match-&gt;node_defined</title>
<path fill="none" stroke="#000000" d="M232.7717,-168.8102C234.1817,-162.0688 237.3114,-147.1048 240.3691,-132.4854"/>
<polygon fill="#000000" stroke="#000000" points="243.831,-133.0293 242.4524,-122.5245 236.9792,-131.5962 243.831,-133.0293"/>
</g>
<!-- node_no errors&#45;&gt;node_passed -->
<g id="edge24" class="edge">
<title>node_no errors-&gt;node_passed</title>
<path fill="none" stroke="#000000" d="M512.8774,-168.9249C528.6464,-163.7115 556.1848,-154.48 558,-153 565.542,-146.8507 571.8082,-138.5553 576.8194,-130.199"/>
<polygon fill="#000000" stroke="#000000" points="580.0129,-131.6552 581.7656,-121.2063 573.8795,-128.2816 580.0129,-131.6552"/>
</g>
<!-- node_no errors&#45;&gt;node_idle executors -->
<g id="edge23" class="edge">
<title>node_no errors-&gt;node_idle executors</title>
<path fill="none" stroke="#000000" d="M502,-168.8102C502,-162.2297 502,-147.8144 502,-133.5326"/>
<polygon fill="#000000" stroke="#000000" points="505.5001,-133.2706 502,-123.2707 498.5001,-133.2707 505.5001,-133.2706"/>
</g>
<!-- node_execute&#45;&gt;node_executing -->
<g id="edge10" class="edge">
<title>node_execute-&gt;node_executing</title>
<path fill="none" stroke="#000000" d="M329.2309,-23.0532C325.0304,-43.4648 306.7024,-146.9514 353,-206 371.213,-229.2291 403.5141,-239.9131 428.93,-244.8251"/>
<polygon fill="#000000" stroke="#000000" points="428.5415,-248.3094 438.9883,-246.5445 429.721,-241.4095 428.5415,-248.3094"/>
</g>
</g>
</svg>
